<?xml version="1.0" encoding="UTF-8"?>
<svg id="Capa_1" data-name="Capa 1" xmlns="http://www.w3.org/2000/svg" viewBox="0 0 612 283.46">
  <defs>
    <style>
      .cls-1 {
        fill: none;
      }

      .cls-2 {
        fill: #1d1d1b;
      }
    </style>
  </defs>
  <g>
    <path class="cls-2" d="M31.68,137.82c0-23.09,16.9-38.95,37.35-38.95,9.8,0,18.89,3.68,24.28,10.48l.14-9.07h15.62v74.93h-15.62l-.14-9.07c-5.4,6.8-14.49,10.48-24.28,10.48-20.45,0-37.35-16.01-37.35-38.81ZM71.3,160.48c11.93,0,21.44-8.36,21.44-22.66s-9.51-22.81-21.44-22.81c-12.64,0-22.01,9.21-22.01,22.81s9.37,22.66,22.01,22.66Z"/>
    <path class="cls-2" d="M119.73,100.28h18.46l15.34,51.56,16.47-51.56h16.33l16.05,50.29,15.62-50.29h18.04l-24.99,74.93h-16.19l-17.04-50.29-17.04,50.29h-17.18l-23.86-74.93Z"/>
    <path class="cls-1" d="M239.31,137.82c0-23.09,16.9-38.95,37.35-38.95,9.8,0,18.89,3.68,24.28,10.48l.14-9.07h15.62v74.93h-15.62l-.14-9.07c-5.4,6.8-14.48,10.48-24.28,10.48-20.45,0-37.35-16.01-37.35-38.81ZM278.93,160.48c11.93,0,21.44-8.36,21.44-22.66s-9.51-22.81-21.44-22.81c-12.64,0-22.01,9.21-22.01,22.81s9.37,22.66,22.01,22.66Z"/>
    <path class="cls-2" d="M356.19,172.1l-30.11-71.81h19.6l19.74,50.43,18.32-50.43h18.46l-39.91,103.12h-18.46l12.36-31.3Z"/>
    <path class="cls-2" d="M439.69,98.58c19.46,0,31.24,12.04,31.24,32.01v44.62h-17.61v-44.05c0-10.48-4.97-16.15-13.63-16.15s-13.63,5.67-13.63,16.15v44.05h-17.61v-44.62c0-19.97,11.64-32.01,31.24-32.01Z"/>
    <path class="cls-2" d="M483.72,137.82c0-23.09,16.9-38.95,37.35-38.95,9.8,0,18.89,3.68,24.28,10.48l.14-9.07h15.62v74.93h-15.62l-.14-9.07c-5.4,6.8-14.49,10.48-24.28,10.48-20.45,0-37.35-16.01-37.35-38.81ZM523.34,160.48c11.93,0,21.44-8.36,21.44-22.66s-9.51-22.81-21.44-22.81c-12.64,0-22.01,9.21-22.01,22.81s9.37,22.66,22.01,22.66Z"/>
  </g>
  <polyline class="cls-2" points="217.59 101.69 235.56 101.69 243.63 78.44 224.59 78.44"/>
  <path class="cls-2" d="M346.4,175.59c.01.2-2.33,2.08-2.54,2.07l-7.97-.53-6.87-.74c-.89-.1-1.91.05-2.71-.06-3.07-.43-6.36-.75-9.44-.86-.14-.04-.41-.07-.56-.09-2.84-.36-5.72-.4-8.55-.68l-6.32-.65c-1.16-.12-2.32-.13-3.41-.23l-7.15-.67c-1.06.53-1.3,1.74-1.93,2.47-1.71,1.97-3.07,4.31-4.75,6.29l-1.35,1.6c-.33.39-.6.79-.94,1.07-1.06-.34-2.2-.78-3.17-1.36-2.35-1.42-4.74-2.82-7.19-4.05-.77-.39-1.55-1.1-2.44-1.4-2.38.99-4.41,2.39-6.57,3.54l-8.19,4.37c-2.4,1.28-4.9,2.46-7.17,3.94-.09,0-.25.05-.34.08l-.32.23-.32.24c-.6.21-1.21.46-1.84.82l-6.74,3.82c-2.69,1.52-5.48,2.9-8.21,4.36l-5.03,2.68c-.78.42-3.99,1.25-4.41.8-.11-.12,1.29-.25,1.34-.41.41-1.34.72-2.73,1.31-3.95s.7-2.44,1.06-3.58l5.77-18.3.73-1.77c.76-1.83,1.79-5.61,2.33-7.52.03-.1.04-.31.08-.4.9-2.34,2.28-6.94,3.02-9.55.58-2.03,1.73-4.84,2.43-7.37.18-.64.49-1.67.73-2.28,1.17-2.96,1.86-6.11,2.87-9.11l3.07-9.13-24.73,73.39,31.94-96.06c.23-.7.42-1.51.65-2.1.84-2.14-30.17,99-29.53,96.78.23-.8-1.57,1.61-3.06,1.37-.24-.04,34.71-108.25,34.76-108.49l2.66-8.74s1.66-6.58,1.89-6.39M327.53,175.14l15.06,1.22c-1.3-1.65-2.54-2.91-3.85-4.41l-15.86-18.02-15.78-17.97-16.23-18.41-15.8-17.93-13.21-15.14,5.24,15.98,9.52,29.05,12.18,36.79.68,1.45,1.43,4.29,11.75.96,12.14,1.05,12.74,1.09ZM259.82,85.18l-1.04,3.56-6.29,19.99-7.32,22.88-7.34,22.87-7.41,23.13-7.19,22.76c-.11.33-.41.57-.2.89l11.11-6.03,11.04-5.97,11.1-5.99,12.29-6.59-6.65-71.21M288.41,174.01c.51-.4.98-.97,1.18-1.65l-8.2-24.68-7.7-23.35-7.46-22.65c-.84-2.56-1.45-5.22-2.72-7.81l18.57,88.76,6.33-8.63Z"/>
</svg>